<svg width="120" height="120" viewBox="0 0 120 120" fill="none" xmlns="http://www.w3.org/2000/svg">
<path d="M101.812 78.3978L101.661 78.4988C91.0064 86.6283 80.2513 91.5766 66.82 94.5053C46.2186 98.9992 27.0816 96.323 16.7809 87.5372C12.1355 83.5987 9.56032 78.5998 9.10588 72.7931C7.84354 57.847 19.1036 42.3455 39.1495 31.3884L39.3515 31.2874L39.099 30.7319L38.8971 30.8329C15.3671 40.3257 -1.1948 57.9984 0.0675405 74.7623C0.572476 81.6294 3.65258 87.6886 8.9544 92.334C19.861 101.877 39.2505 104.806 60.7608 100.211C78.08 96.525 91.8648 88.7995 102.064 79.1047L102.266 78.9028L101.812 78.3978Z" fill="#003082"/>
<path d="M117.464 37.7505C113.374 28.6112 104.386 22.4509 92.1665 20.2797C72.4235 16.7957 48.7421 25.3291 36.8761 39.0633L36.7246 39.2148L37.0781 39.7197L37.28 39.5682C45.157 33.0041 56.821 28.0052 68.485 26.238C85.8043 23.6123 100.346 27.9547 107.365 37.902C114.182 47.5462 112.263 66.1783 103.275 76.9839L103.124 77.1859L103.578 77.6908L103.78 77.5394C117.413 64.613 123.977 52.3431 117.464 37.7505Z" fill="#892528"/>
<path d="M44.7034 64.0071H31.6255L30.2117 71.5306H44.8043L43.643 77.6908H21.7793L27.889 45.072H48.8943L47.6825 51.2322H34.0492L32.7869 57.8974H45.8647L44.7034 64.0071Z" fill="#003082"/>
<path d="M57.9836 51.2323H49.9551L51.1669 45.0216H78.8879C77.2216 45.3751 75.7573 46.3849 74.3939 47.7483C72.8286 49.3136 72.5257 51.1818 72.5257 51.1818H65.2546L60.3062 77.5899H53.0352L57.9836 51.2323Z" fill="#003082"/>
<path d="M72.7777 69.7129C74.9994 71.0257 78.0795 72.0861 81.5131 72.0861C84.1893 72.0861 86.8149 70.9752 86.8149 68.4C86.8149 66.6833 85.3001 65.4714 82.018 64.0576C78.231 62.4418 74.343 59.8666 74.343 55.1707C74.343 48.4551 80.6042 44.5166 87.8753 44.5166C92.3187 44.5166 94.9444 45.476 96.5602 46.2839L94.187 52.2926C93.0761 51.7372 90.3495 50.6263 87.2694 50.6768C83.7853 50.6768 82.0685 52.2926 82.0685 53.8074C82.0685 55.8271 84.5427 56.9885 87.3198 58.3013C91.7128 60.2201 94.6414 62.8457 94.6414 67.1377C94.6414 74.6107 88.1277 78.1958 80.5032 78.1958C75.5549 78.0948 71.9193 76.8325 70.1016 75.4691L72.7777 69.7129Z" fill="#003082"/>
<path d="M115.748 85.3659C114.89 86.2243 113.83 86.6788 112.567 86.6788C111.305 86.6788 110.295 86.2243 109.386 85.3659C108.528 84.5075 108.073 83.4472 108.073 82.1849C108.073 80.973 108.528 79.9126 109.386 79.0038C110.244 78.1454 111.305 77.6909 112.517 77.6909C113.779 77.6909 114.839 78.1454 115.698 79.0038C116.556 79.8621 117.011 80.9225 117.011 82.1849C117.061 83.3967 116.607 84.4571 115.748 85.3659ZM109.841 79.4582C109.083 80.2156 108.73 81.1245 108.73 82.1849C108.73 83.2452 109.083 84.1541 109.841 84.9115C110.598 85.6689 111.507 86.0728 112.567 86.0728C113.628 86.0728 114.536 85.7194 115.294 84.9115C116.051 84.1541 116.405 83.2452 116.405 82.1849C116.405 81.1245 116.051 80.2156 115.294 79.4582C114.536 78.7008 113.628 78.2968 112.567 78.2968C111.507 78.2968 110.598 78.7008 109.841 79.4582ZM112.466 79.7107C113.072 79.7107 113.527 79.7612 113.83 79.8621C114.334 80.0641 114.587 80.4681 114.587 81.1245C114.587 81.5789 114.435 81.8819 114.082 82.0839C113.93 82.1848 113.678 82.2858 113.375 82.3363C113.779 82.3868 114.031 82.5383 114.233 82.8413C114.435 83.0937 114.486 83.3462 114.486 83.5987V83.9521C114.486 84.0531 114.486 84.2046 114.486 84.3056C114.486 84.4571 114.486 84.5075 114.536 84.558L114.587 84.6085H113.779V84.558V84.5075V84.3561V83.9521C113.779 83.3967 113.628 82.9927 113.325 82.8413C113.123 82.7403 112.82 82.6898 112.365 82.6898H111.658V84.6085H110.8V79.7107H112.466ZM113.426 80.4681C113.224 80.3671 112.87 80.2661 112.365 80.2661H111.608V82.0334H112.365C112.719 82.0334 113.022 81.9829 113.173 81.9324C113.527 81.7809 113.678 81.5284 113.678 81.175C113.729 80.8215 113.628 80.569 113.426 80.4681Z" fill="#003082"/>
</svg>
