<svg width="65" height="64" viewBox="0 0 65 64" fill="none" xmlns="http://www.w3.org/2000/svg">
<g clip-path="url(#clip0_57_998)">
<path d="M33.7373 35.016C33.8573 32.895 34.9008 31.0225 36.4798 29.699C38.0268 28.398 40.1038 27.6025 42.3843 27.6025C44.6528 27.6025 46.7293 28.3975 48.2743 29.699C49.8558 31.0225 50.8928 32.895 51.0168 35.016C51.1368 37.191 50.2553 39.221 48.7143 40.7245C47.1353 42.2495 44.9008 43.213 42.3843 43.213C39.8658 43.213 37.6213 42.2555 36.0523 40.7245C34.5053 39.2215 33.6258 37.2025 33.7493 35.026L33.7373 35.016Z" fill="#235785"/>
<path d="M20.1939 39.5009C20.2079 40.3309 20.4759 41.9459 20.8739 43.2029C21.7149 45.8709 23.1424 48.3394 25.1189 50.5024C27.1499 52.7349 29.6559 54.5299 32.5439 55.8074C35.5804 57.1424 38.8764 57.8259 42.2964 57.8259C45.7164 57.8214 49.0124 57.1259 52.0484 55.7749C54.9364 54.4839 57.4434 52.6909 59.4734 50.4464C61.4604 48.2594 62.8834 45.7929 63.7189 43.1229C64.1373 41.7967 64.4048 40.4276 64.5164 39.0414C64.6204 37.6964 64.5764 36.3389 64.3849 34.9814C64.0101 32.3658 63.0871 29.8588 61.6764 27.6244C60.3894 25.5494 58.7184 23.7444 56.7314 22.2179L56.7374 22.2159L36.7599 6.96295C36.7419 6.94895 36.7259 6.93495 36.7079 6.92295C35.3984 5.92195 33.1859 5.92595 31.7529 6.92695C30.2959 7.94245 30.1279 9.61945 31.4249 10.6749L31.4189 10.6789L39.7599 17.4209L14.3654 17.4464H14.3314C12.2329 17.4484 10.2119 18.8159 9.81643 20.5529C9.40643 22.3134 10.8339 23.7829 13.0224 23.7829L13.0184 23.7909L25.8864 23.7669L2.86143 41.2619C2.83343 41.2839 2.80143 41.3059 2.77343 41.3279C0.60593 42.9749 -0.0935695 45.7229 1.27143 47.4499C2.66043 49.2109 5.60443 49.2229 7.79493 47.4599L20.3239 37.2549C20.3239 37.2549 20.1399 38.6339 20.1559 39.4534L20.1939 39.5009ZM52.4739 44.1104C49.8899 46.7244 46.2659 48.2154 42.3604 48.2154C38.4449 48.2214 34.8209 46.7564 32.2364 44.1444C30.9734 42.8649 30.0479 41.4079 29.4724 39.8489C28.9098 38.3149 28.6929 36.6755 28.8369 35.0479C28.9737 33.4599 29.4472 31.9192 30.2259 30.5284C30.9794 29.1714 32.0209 27.9384 33.2959 26.8949C35.8124 24.8659 39.0059 23.7549 42.3459 23.7549C45.7004 23.7509 48.8944 24.8419 51.4109 26.8729C52.6859 27.9104 53.7234 29.1374 54.4809 30.4944C55.2612 31.8851 55.7342 33.4269 55.8679 35.0159C56.0099 36.6428 55.7929 38.2811 55.2324 39.8149C54.6589 41.3859 53.7314 42.8429 52.4659 44.1224L52.4739 44.1104Z" fill="#E87500"/>
</g>
<defs>
<clipPath id="clip0_57_998">
<rect width="64" height="64" fill="white" transform="translate(0.571289)"/>
</clipPath>
</defs>
</svg>
