<svg width="120" height="120" viewBox="0 0 120 120" fill="none" xmlns="http://www.w3.org/2000/svg">
<path d="M81.3205 4.06419L105.957 70.1875C106.134 70.6612 106.193 71.1708 106.13 71.6726C106.067 72.1743 105.883 72.6532 105.594 73.0682C105.305 73.4833 104.919 73.822 104.471 74.0554C104.022 74.2887 103.523 74.4098 103.018 74.4081H80.0387C79.3832 74.4098 78.7439 74.2055 78.2109 73.824C77.6779 73.4425 77.2783 72.9032 77.0686 72.2822L52.4951 -0.00012207H75.4741C76.7464 0.00210473 77.9877 0.392378 79.0323 1.11859C80.077 1.84481 80.8752 2.87241 81.3205 4.06419Z" fill="#4185C1"/>
<path d="M63.6877 28.1376H75.0991C75.6509 28.1377 76.1929 28.2838 76.6699 28.5612C77.147 28.8385 77.5421 29.2372 77.8152 29.7167C78.0883 30.1962 78.2296 30.7395 78.2248 31.2913C78.22 31.8431 78.0692 32.3838 77.7878 32.8584L53.8708 72.8763C53.5941 73.343 53.2007 73.7297 52.7293 73.9983C52.2579 74.2669 51.7247 74.4082 51.1821 74.4083H19.3867C18.8348 74.4082 18.2929 74.262 17.8158 73.9847C17.3388 73.7073 16.9436 73.3086 16.6705 72.8291C16.3974 72.3496 16.2561 71.8064 16.2609 71.2546C16.2658 70.7028 16.4165 70.1621 16.698 69.6874L28.8597 49.3971H16.9793C16.4207 49.3982 15.872 49.2496 15.3903 48.9668C14.9086 48.684 14.5114 48.2773 14.2401 47.789C13.9688 47.3007 13.8333 46.7486 13.8477 46.1902C13.8621 45.6318 14.0258 45.0874 14.3219 44.6137L41.2715 1.46941C41.553 1.01886 41.9448 0.647503 42.4098 0.390403C42.8748 0.133303 43.3976 -0.00105694 43.9289 6.27732e-06H75.5993C76.1579 -0.00111296 76.7066 0.147456 77.1883 0.430259C77.6701 0.713063 78.0672 1.11977 78.3385 1.60808C78.6098 2.0964 78.7453 2.64848 78.7309 3.2069C78.7165 3.76532 78.5528 4.3097 78.2567 4.78339L63.6877 28.1376Z" fill="url(#paint0_linear_118_871)"/>
<path d="M27.9737 107.945L26.8179 105.265H21.6103L20.4418 107.945H17.4951L22.8678 95.5106H25.5477L30.9204 107.945H27.9737ZM24.1633 99.2194L22.6645 102.865H25.7764L24.1633 99.2194ZM36.636 105.722C37.1068 105.71 37.5684 105.588 37.9848 105.368C38.4012 105.148 38.7611 104.834 39.0365 104.452L40.6242 106.23C40.1228 106.797 39.5098 107.255 38.8235 107.574C38.1373 107.893 37.3925 108.067 36.636 108.085C35.2965 108.099 34.0038 107.593 33.0288 106.675C32.5474 106.23 32.1669 105.686 31.9127 105.082C31.6586 104.477 31.5368 103.825 31.5554 103.169C31.5325 102.502 31.6546 101.837 31.9133 101.221C32.172 100.604 32.5613 100.052 33.0542 99.6004C34.021 98.6881 35.3069 98.1911 36.636 98.216C37.3559 98.2226 38.0677 98.3693 38.7317 98.6478C39.4337 98.9333 40.0662 99.3665 40.5861 99.9179L39.1762 101.722C38.8688 101.356 38.4823 101.065 38.0458 100.871C37.648 100.682 37.2155 100.579 36.7757 100.566C36.1077 100.548 35.4597 100.795 34.9721 101.252C34.7166 101.496 34.5172 101.793 34.3878 102.122C34.2584 102.451 34.2021 102.804 34.2227 103.157C34.2022 103.508 34.2587 103.859 34.3881 104.186C34.5175 104.513 34.7169 104.807 34.9721 105.049C35.4263 105.469 36.0179 105.708 36.636 105.722ZM50.6074 107.945H48.0671V106.789C47.7734 107.186 47.3903 107.508 46.9489 107.728C46.5076 107.949 46.0203 108.062 45.5269 108.059C44.6018 108.085 43.6988 107.774 42.9866 107.183C42.6484 106.895 42.38 106.534 42.2018 106.127C42.0236 105.72 41.9401 105.277 41.9578 104.833C41.9367 104.415 42.0196 103.997 42.1991 103.618C42.3786 103.239 42.6492 102.91 42.9866 102.661C43.8649 102.131 44.8834 101.878 45.9079 101.937H47.902C47.902 100.921 47.3643 100.413 46.2889 100.413C45.7854 100.421 45.2869 100.515 44.8156 100.693C44.3598 100.855 43.9315 101.087 43.5455 101.379L42.3515 99.6512C43.6004 98.7397 45.1113 98.2583 46.6573 98.2795C47.6534 98.2153 48.6421 98.4882 49.4643 99.0542C49.8632 99.3956 50.175 99.8271 50.3738 100.313C50.5726 100.799 50.6527 101.325 50.6074 101.849V107.945ZM47.9274 104.3V103.843H46.2127C45.1458 103.843 44.6124 104.173 44.6124 104.833C44.605 104.986 44.636 105.138 44.7026 105.276C44.7692 105.413 44.8692 105.532 44.9934 105.621C45.3197 105.825 45.7014 105.923 46.0857 105.9C46.5469 105.912 46.9971 105.759 47.3558 105.468C47.5302 105.329 47.6693 105.151 47.762 104.948C47.8546 104.745 47.8983 104.523 47.8893 104.3H47.9274ZM56.8183 108.11C56.2431 108.1 55.6769 107.967 55.1576 107.719C54.6384 107.471 54.1782 107.115 53.8081 106.675C52.9404 105.694 52.4854 104.415 52.538 103.106C52.5097 102.469 52.6074 101.832 52.8253 101.233C53.0433 100.634 53.3772 100.083 53.8081 99.6131C54.1901 99.1859 54.658 98.8441 55.181 98.61C55.7041 98.3758 56.2706 98.2545 56.8437 98.2541C57.3823 98.2424 57.9168 98.3502 58.4088 98.5698C58.9007 98.7895 59.3379 99.1154 59.6888 99.5242V94.8247H62.3561V107.945H59.6888V106.675C59.3599 107.121 58.9287 107.482 58.4314 107.728C57.9342 107.973 57.3854 108.095 56.831 108.085L56.8183 108.11ZM55.1417 103.208C55.1165 103.906 55.3675 104.586 55.8403 105.1C56.0417 105.33 56.2896 105.515 56.5677 105.642C56.8458 105.769 57.1477 105.835 57.4534 105.837C57.7542 105.839 58.0517 105.774 58.3242 105.647C58.5967 105.519 58.8372 105.332 59.0283 105.1C59.4755 104.569 59.7067 103.889 59.6761 103.195C59.703 102.49 59.4727 101.799 59.0283 101.252C58.8403 101.01 58.5995 100.814 58.3243 100.68C58.0491 100.546 57.7469 100.476 57.4407 100.477C57.1299 100.479 56.8236 100.55 56.5443 100.687C56.2651 100.823 56.0201 101.02 55.8276 101.264C55.3758 101.799 55.1362 102.482 55.1544 103.182L55.1417 103.208ZM73.1141 106.586C72.6106 107.079 72.0148 107.467 71.3609 107.728C70.707 107.99 70.0079 108.12 69.3037 108.11C67.9712 108.152 66.6757 107.669 65.6965 106.764C65.2171 106.298 64.8423 105.735 64.597 105.113C64.3517 104.492 64.2416 103.825 64.274 103.157C64.2425 102.489 64.3556 101.822 64.6055 101.201C64.8554 100.581 65.2362 100.022 65.7219 99.5623C66.6446 98.6913 67.8698 98.2131 69.1385 98.2287C70.3656 98.1974 71.5605 98.6229 72.4917 99.4226C72.9536 99.8299 73.3179 100.336 73.5576 100.903C73.7972 101.47 73.9061 102.084 73.8761 102.7V104.135H66.9412C66.9832 104.391 67.0769 104.635 67.2167 104.854C67.3564 105.072 67.5393 105.26 67.7541 105.405C68.2084 105.733 68.756 105.907 69.3164 105.9C69.746 105.914 70.1737 105.837 70.5719 105.675C70.97 105.514 71.3298 105.27 71.628 104.96L73.1141 106.586ZM71.1962 102.23C71.1574 101.74 70.9296 101.284 70.5611 100.959C70.1826 100.649 69.7041 100.486 69.2148 100.502C68.6925 100.501 68.1841 100.671 67.7668 100.985C67.5588 101.132 67.3836 101.321 67.2524 101.54C67.1213 101.759 67.0369 102.002 67.0047 102.255L71.1962 102.23ZM84.6087 102.814V107.945H81.9414V102.712C81.9847 102.132 81.866 101.552 81.5985 101.036C81.4732 100.859 81.3047 100.717 81.1091 100.623C80.9134 100.53 80.6971 100.488 80.4808 100.502C80.2255 100.501 79.9725 100.551 79.7369 100.649C79.5013 100.747 79.2878 100.891 79.1091 101.074C78.9032 101.306 78.7474 101.578 78.6512 101.873C78.5551 102.168 78.5207 102.48 78.5502 102.788V107.945H75.8829V98.3811H78.5502V99.4607C78.8525 99.0733 79.2374 98.7583 79.6768 98.5386C80.1163 98.3189 80.5992 98.2 81.0905 98.1905C81.6841 98.185 82.2634 98.3722 82.7416 98.724C83.2134 99.0486 83.5974 99.485 83.8593 99.9941C84.2256 99.4207 84.7387 98.9558 85.3454 98.6478C85.9238 98.3375 86.5688 98.1719 87.2252 98.1651C87.7222 98.1429 88.2187 98.2202 88.6855 98.3925C89.1523 98.5648 89.5799 98.8286 89.9433 99.1685C90.3048 99.557 90.5827 100.016 90.7597 100.516C90.9367 101.016 91.009 101.548 90.9721 102.077V107.945H88.2159V102.712C88.2159 101.239 87.6782 100.502 86.6028 100.502C86.3454 100.499 86.09 100.548 85.8521 100.646C85.6141 100.744 85.3986 100.89 85.2184 101.074C85.007 101.304 84.8451 101.574 84.7424 101.869C84.6397 102.164 84.5985 102.477 84.6214 102.788L84.6087 102.814ZM94.9603 111.705C93.9611 111.68 93.01 111.271 92.3057 110.562L93.5758 108.593C93.7516 108.789 93.9644 108.948 94.202 109.062C94.4396 109.175 94.6973 109.24 94.9603 109.253C95.0883 109.249 95.2134 109.213 95.3242 109.149C95.435 109.085 95.5282 108.994 95.5953 108.885C95.7674 108.663 95.8612 108.391 95.862 108.11C95.862 107.839 94.63 104.592 92.166 98.3684H95.0111L97.3354 104.325L99.6597 98.3684H102.505L98.0594 109.647C97.8097 110.278 97.3645 110.812 96.7892 111.171C96.2548 111.541 95.6228 111.744 94.973 111.756L94.9603 111.705Z" fill="#434856"/>
<path d="M21.1673 118.106H18.4492V111.895H20.8625C21.2323 111.888 21.601 111.939 21.9548 112.048C22.2159 112.119 22.4529 112.259 22.6406 112.454C22.9159 112.746 23.0702 113.132 23.0725 113.534C23.0886 113.737 23.0555 113.942 22.9759 114.129C22.8963 114.317 22.7726 114.483 22.6152 114.613L22.3866 114.766L22.1707 114.867C22.5248 114.935 22.8465 115.118 23.0852 115.388C23.3163 115.661 23.4384 116.009 23.4281 116.366C23.4296 116.79 23.2708 117.198 22.9836 117.509C22.74 117.731 22.4523 117.899 22.1393 118.002C21.8262 118.105 21.495 118.14 21.1673 118.106ZM19.4907 114.474H20.8244C21.5864 114.474 21.9675 114.215 21.9675 113.699C21.9778 113.578 21.9576 113.457 21.9088 113.346C21.86 113.235 21.7841 113.138 21.688 113.064C21.4298 112.917 21.1334 112.85 20.8371 112.873H19.5034L19.4907 114.474ZM19.4907 117.141H21.1419C21.4487 117.161 21.7553 117.099 22.031 116.963C22.1386 116.887 22.2237 116.783 22.2773 116.662C22.3309 116.541 22.3511 116.408 22.3358 116.277C22.3358 115.727 21.9124 115.452 21.0657 115.452H19.5034L19.4907 117.141ZM25.2063 119.986C24.7713 119.983 24.3536 119.815 24.0378 119.516L24.495 118.703C24.6644 118.882 24.897 118.986 25.1428 118.995C25.2461 118.999 25.3489 118.979 25.4435 118.937C25.5381 118.895 25.622 118.833 25.689 118.754C25.8181 118.611 25.8904 118.426 25.8922 118.233C25.8922 118.149 25.2529 116.527 23.9743 113.369H25.0412L26.4764 116.836L27.8863 113.356H28.9532L26.6161 118.995C26.4918 119.286 26.2896 119.536 26.0319 119.719C25.7904 119.89 25.5023 119.984 25.2063 119.986ZM37.2598 113.902C37.307 114.334 37.1968 114.768 36.9494 115.125C36.7021 115.482 36.3343 115.738 35.9135 115.845L37.5138 118.106H36.1802L34.6942 116.01H33.3097V118.106H32.2555V111.895H34.5671C35.2787 111.836 35.9906 112.005 36.5994 112.378C36.8168 112.567 36.9865 112.805 37.0947 113.072C37.2028 113.339 37.2464 113.628 37.2217 113.915L37.2598 113.902ZM34.6561 115.058C35.0991 115.115 35.5483 115.017 35.9262 114.778C36.0415 114.663 36.1298 114.523 36.1847 114.37C36.2396 114.216 36.2597 114.052 36.2437 113.889C36.2633 113.733 36.2433 113.575 36.1856 113.428C36.1279 113.282 36.0343 113.152 35.9135 113.051C35.5527 112.868 35.1481 112.789 34.745 112.822H33.4748V115.045L34.6561 115.058ZM41.9339 115.934V113.394H42.9246V118.106H41.9339V117.242C41.7958 117.485 41.6046 117.694 41.3747 117.852C41.1447 118.011 40.882 118.115 40.606 118.158C40.33 118.201 40.0479 118.18 39.7808 118.099C39.5137 118.017 39.2685 117.877 39.0634 117.687C38.8901 117.498 38.7569 117.275 38.6717 117.033C38.5866 116.79 38.5513 116.533 38.5681 116.277V113.381H39.5588V115.922C39.5588 116.768 39.9186 117.192 40.6384 117.192C40.9724 117.2 41.2964 117.077 41.5402 116.849C41.6594 116.729 41.7534 116.586 41.8167 116.429C41.8799 116.272 41.9111 116.104 41.9085 115.934H41.9339ZM48.1702 118.106H47.2684V117.471C47.0773 117.701 46.8358 117.883 46.5626 118.004C46.2894 118.126 45.992 118.182 45.6935 118.17C45.232 118.198 44.7774 118.048 44.4233 117.751C44.2638 117.613 44.1375 117.441 44.0539 117.247C43.9703 117.053 43.9316 116.843 43.9407 116.633C43.9289 116.429 43.9707 116.225 44.0621 116.043C44.1535 115.86 44.2912 115.704 44.4614 115.591C44.8827 115.341 45.3691 115.221 45.8586 115.248H47.1287V115.071C47.1287 114.444 46.7773 114.131 46.0745 114.131C45.5791 114.15 45.1011 114.318 44.7028 114.613L44.2582 113.991C44.8106 113.542 45.5023 113.299 46.2142 113.305C46.702 113.284 47.182 113.432 47.5733 113.724C47.7511 113.883 47.8914 114.079 47.9837 114.299C48.0759 114.519 48.118 114.756 48.1067 114.994L48.1702 118.106ZM47.1795 116.341V115.947H46.0618C45.3421 115.947 44.9822 116.171 44.9822 116.62C44.976 116.725 44.9974 116.829 45.0442 116.923C45.091 117.016 45.1616 117.096 45.2489 117.154C45.4707 117.286 45.7277 117.348 45.9856 117.331C46.2827 117.336 46.573 117.242 46.8112 117.065C46.9281 116.984 47.023 116.876 47.0873 116.749C47.1516 116.623 47.1833 116.483 47.1795 116.341ZM50.6089 115.566V118.106H49.6182V113.381H50.6089V114.296C50.747 114.053 50.9382 113.845 51.1681 113.686C51.398 113.528 51.6608 113.423 51.9368 113.38C52.2128 113.338 52.4948 113.358 52.7619 113.439C53.029 113.521 53.2743 113.662 53.4794 113.851C53.6527 114.041 53.7859 114.263 53.871 114.506C53.9562 114.748 53.9914 115.005 53.9747 115.261V118.106H52.984V115.566C52.984 114.719 52.6241 114.296 51.9044 114.296C51.5704 114.287 51.2464 114.41 51.0026 114.639C50.8772 114.758 50.7776 114.902 50.7099 115.062C50.6422 115.221 50.6078 115.393 50.6089 115.566ZM59.7284 113.394V117.522C59.7433 117.865 59.6854 118.208 59.5584 118.528C59.4314 118.847 59.2383 119.137 58.9917 119.376C58.5071 119.798 57.8809 120.02 57.2389 119.999C56.5478 120.013 55.8722 119.794 55.321 119.376L55.791 118.614C56.1864 118.937 56.6777 119.12 57.1881 119.135C57.5935 119.155 57.9917 119.024 58.3058 118.767C58.4565 118.614 58.5721 118.431 58.6445 118.229C58.7169 118.027 58.7444 117.812 58.725 117.598V116.988C58.5795 117.267 58.3597 117.5 58.0899 117.662C57.8103 117.83 57.4893 117.918 57.1627 117.916C56.872 117.924 56.5829 117.87 56.3153 117.756C56.0477 117.642 55.8082 117.471 55.6132 117.255C55.2263 116.797 55.0141 116.216 55.0141 115.617C55.0141 115.017 55.2263 114.437 55.6132 113.978C55.8068 113.764 56.0443 113.594 56.3095 113.48C56.5747 113.366 56.8614 113.311 57.15 113.318C57.448 113.313 57.7426 113.381 58.0082 113.516C58.2738 113.651 58.5025 113.849 58.6742 114.093V113.394H59.7284ZM55.9815 115.566C55.9721 115.933 56.0988 116.29 56.3372 116.569C56.4588 116.704 56.6078 116.811 56.7743 116.884C56.9409 116.956 57.1209 116.992 57.3024 116.988C57.4872 116.997 57.6716 116.965 57.8427 116.895C58.0138 116.825 58.1676 116.718 58.2931 116.582C58.5471 116.306 58.6837 115.941 58.6742 115.566C58.683 115.187 58.5467 114.819 58.2931 114.537C58.1687 114.399 58.0155 114.29 57.8444 114.217C57.6732 114.145 57.4882 114.111 57.3024 114.118C57.1191 114.11 56.9363 114.145 56.7688 114.22C56.6012 114.295 56.4534 114.408 56.3372 114.55C56.101 114.835 55.9748 115.196 55.9815 115.566ZM65.4821 113.381V117.509C65.507 117.85 65.46 118.193 65.344 118.514C65.2281 118.836 65.0457 119.13 64.8089 119.376C64.3243 119.798 63.6981 120.02 63.0561 119.999C62.365 120.013 61.6894 119.794 61.1382 119.376L61.6082 118.614C62.0036 118.937 62.4949 119.12 63.0053 119.135C63.4107 119.155 63.8089 119.024 64.123 118.767C64.2737 118.614 64.3893 118.431 64.4617 118.229C64.5341 118.027 64.5615 117.812 64.5422 117.598V116.988C64.3967 117.267 64.1769 117.5 63.9071 117.662C63.6275 117.83 63.3065 117.918 62.9799 117.916C62.6892 117.924 62.4 117.87 62.1325 117.756C61.8649 117.642 61.6254 117.471 61.4304 117.255C61.0435 116.797 60.8313 116.216 60.8313 115.617C60.8313 115.017 61.0435 114.437 61.4304 113.978C61.6239 113.764 61.8615 113.594 62.1267 113.48C62.3919 113.366 62.6786 113.311 62.9672 113.318C63.2652 113.313 63.5598 113.381 63.8254 113.516C64.091 113.651 64.3197 113.849 64.4914 114.093V113.394L65.4821 113.381ZM61.7987 115.566C61.7893 115.933 61.9159 116.29 62.1543 116.569C62.2759 116.704 62.425 116.811 62.5915 116.884C62.758 116.956 62.9381 116.992 63.1196 116.988C63.3044 116.997 63.4888 116.965 63.6599 116.895C63.831 116.825 63.9848 116.718 64.1103 116.582C64.3643 116.306 64.5009 115.941 64.4914 115.566C64.5002 115.187 64.3639 114.819 64.1103 114.537C63.9859 114.399 63.8327 114.29 63.6615 114.217C63.4904 114.145 63.3054 114.111 63.1196 114.118C62.9362 114.11 62.7535 114.145 62.586 114.22C62.4184 114.295 62.2706 114.408 62.1543 114.55C61.9182 114.835 61.792 115.196 61.7987 115.566ZM70.2323 115.934V113.394H71.2231V118.106H70.2323V117.242C70.0942 117.485 69.9031 117.694 69.6731 117.852C69.4432 118.011 69.1804 118.115 68.9044 118.158C68.6285 118.201 68.3464 118.18 68.0793 118.099C67.8122 118.017 67.5669 117.877 67.3619 117.687C67.1885 117.498 67.0553 117.275 66.9702 117.033C66.8851 116.79 66.8498 116.533 66.8665 116.277V113.381H67.8572V115.922C67.8572 116.768 68.2171 117.192 68.9368 117.192C69.2708 117.2 69.5948 117.077 69.8386 116.849C69.9625 116.731 70.0612 116.589 70.1288 116.432C70.1965 116.275 70.2317 116.105 70.2323 115.934ZM75.1605 114.296C74.9507 114.278 74.7399 114.313 74.547 114.398C74.3541 114.482 74.1852 114.613 74.0554 114.778C73.7954 115.149 73.6658 115.596 73.6871 116.049V118.106H72.6964V113.381H73.6871V114.296C73.8421 114.006 74.0643 113.758 74.3349 113.572C74.5912 113.389 74.8965 113.287 75.2113 113.28V114.296H75.1605ZM79.517 115.922V113.381H80.5077V118.106H79.517V117.242C79.3789 117.485 79.1877 117.694 78.9578 117.852C78.7278 118.011 78.4651 118.115 78.1891 118.158C77.9131 118.201 77.631 118.18 77.3639 118.099C77.0968 118.017 76.8516 117.877 76.6465 117.687C76.4732 117.498 76.34 117.275 76.2548 117.033C76.1697 116.79 76.1344 116.533 76.1512 116.277V113.381H77.1418V115.922C77.1418 116.768 77.5017 117.192 78.2215 117.192C78.5555 117.2 78.8795 117.077 79.1232 116.849C79.2471 116.731 79.3458 116.589 79.4135 116.432C79.4811 116.275 79.5163 116.105 79.517 115.934V115.922Z" fill="#434856"/>
<path d="M23.1068 79.888C22.7153 79.867 22.3288 79.9838 22.0145 80.2182C21.8826 80.322 21.777 80.4555 21.7064 80.6078C21.6358 80.7601 21.6021 80.9269 21.608 81.0946C21.6057 81.2682 21.6491 81.4394 21.7338 81.591C21.8185 81.7426 21.9416 81.8693 22.0907 81.9583C22.8073 82.3084 23.5677 82.5604 24.3515 82.7077C25.3549 82.904 26.2961 83.3397 27.095 83.9778C27.4333 84.3044 27.6961 84.7009 27.865 85.1397C28.034 85.5785 28.1049 86.0489 28.073 86.5181C28.0869 87.0386 27.9793 87.5553 27.7589 88.0271C27.5384 88.4989 27.2111 88.9128 26.8029 89.2361C25.8616 89.9662 24.6903 90.3356 23.5005 90.2776C21.5261 90.2696 19.6318 89.4955 18.2168 88.1184L19.868 86.0862C20.8551 87.1041 22.1767 87.7311 23.5894 87.8517C24.017 87.8767 24.4408 87.7607 24.7961 87.5215C24.9352 87.4198 25.0474 87.2857 25.1226 87.1307C25.1979 86.9757 25.2341 86.8046 25.2279 86.6324C25.2324 86.4577 25.1928 86.2847 25.1129 86.1294C25.033 85.974 24.9153 85.8412 24.7707 85.7433C24.1968 85.4244 23.5747 85.2013 22.929 85.0828C21.7849 84.8714 20.701 84.4118 19.7537 83.7365C19.4079 83.4144 19.1385 83.0192 18.9649 82.5797C18.7913 82.1403 18.718 81.6676 18.7502 81.1962C18.7228 80.6719 18.8242 80.1489 19.0456 79.6728C19.267 79.1968 19.6017 78.7822 20.0204 78.4654C20.936 77.7837 22.0546 77.4303 23.1957 77.462C24.0608 77.4608 24.9199 77.6068 25.736 77.8939C26.534 78.1756 27.2711 78.6066 27.9079 79.164L26.4726 81.1073C25.519 80.3351 24.3337 79.9057 23.1068 79.888ZM32.8233 90.1633H30.156V76.9667H32.8233V83.7492L35.7954 80.5866H39.1739L35.5413 84.4604L39.3517 90.1633H36.1637L33.7251 86.5054L32.8233 87.4071V90.1633ZM43.4034 90.1633H40.7362V80.5993H43.4034V90.1633ZM40.9775 79.3926C40.8332 79.2449 40.7196 79.0701 40.6433 78.8783C40.567 78.6864 40.5295 78.4814 40.533 78.2749C40.53 78.0693 40.569 77.8653 40.6476 77.6753C40.7263 77.4853 40.8428 77.3133 40.9902 77.1699C41.287 76.879 41.686 76.7161 42.1016 76.7161C42.5171 76.7161 42.9161 76.879 43.2129 77.1699C43.3603 77.3133 43.4769 77.4853 43.5555 77.6753C43.6341 77.8653 43.6731 78.0693 43.6702 78.2749C43.6749 78.4826 43.6367 78.6891 43.558 78.8814C43.4794 79.0737 43.3619 79.2478 43.2129 79.3926C43.0695 79.54 42.8976 79.6566 42.7076 79.7352C42.5176 79.8138 42.3135 79.8528 42.1079 79.8499C41.8985 79.8533 41.6904 79.8147 41.4963 79.7361C41.3021 79.6575 41.1256 79.5407 40.9775 79.3926ZM48.5983 90.1633H45.931V76.9667H48.5983V90.1633ZM53.7931 90.1633H51.1258V76.9667H53.7931V90.1633Z" fill="#434856"/>
<defs>
<linearGradient id="paint0_linear_118_871" x1="67.5957" y1="-9.21661" x2="19.9358" y2="65.5774" gradientUnits="userSpaceOnUse">
<stop stop-color="#9DA7EE"/>
<stop offset="1" stop-color="#64D8D5"/>
</linearGradient>
</defs>
</svg>
