<svg width="64" height="64" viewBox="0 0 64 64" fill="none" xmlns="http://www.w3.org/2000/svg">
<g clip-path="url(#clip0_57_980)">
<path d="M49 0H15C6.71573 0 0 6.71573 0 15V49C0 57.2843 6.71573 64 15 64H49C57.2843 64 64 57.2843 64 49V15C64 6.71573 57.2843 0 49 0Z" fill="#001E36"/>
<path d="M14.4004 44.5099V17.0699C14.4004 16.8832 14.4804 16.7767 14.6671 16.7767C15.1204 16.7767 15.5471 16.7767 16.1604 16.7499C16.8004 16.7232 17.4671 16.7232 18.1871 16.6967C18.9071 16.6699 19.6804 16.6699 20.5071 16.6432C21.3336 16.6167 22.1336 16.6167 22.9336 16.6167C25.1204 16.6167 26.9336 16.8832 28.4271 17.4432C29.7658 17.8978 30.9864 18.6448 32.0004 19.6299C32.8597 20.4921 33.5236 21.5288 33.9471 22.6699C34.3471 23.7899 34.5604 24.9367 34.5604 26.1367C34.5604 28.4299 34.0271 30.3232 32.9604 31.8167C31.8936 33.3099 30.4004 34.4299 28.6671 35.0699C26.8536 35.7367 24.8536 35.9767 22.6671 35.9767C22.0271 35.9767 21.6004 35.9767 21.3336 35.9499C21.0671 35.9232 20.6936 35.9232 20.1871 35.9232V44.4832C20.2136 44.6699 20.0804 44.8299 19.8936 44.8567H14.7204C14.5071 44.8567 14.4004 44.7499 14.4004 44.5099ZM20.2136 21.9232V30.8832C20.5871 30.9099 20.9336 30.9367 21.2536 30.9367H22.6671C23.7071 30.9367 24.7471 30.7767 25.7336 30.4567C26.5871 30.2167 27.3336 29.7099 27.9204 29.0432C28.4804 28.3767 28.7471 27.4699 28.7471 26.2967C28.7722 25.4633 28.5594 24.6401 28.1336 23.9232C27.6804 23.2299 27.0404 22.6967 26.2671 22.4032C25.2804 22.0032 24.2136 21.8432 23.1204 21.8699C22.4271 21.8699 21.8136 21.8699 21.3071 21.8967C20.7736 21.8699 20.4004 21.8967 20.2136 21.9232ZM51.2004 29.2567C50.4004 28.8299 49.5471 28.5367 48.6404 28.3499C47.6536 28.1367 46.6671 28.0032 45.6536 28.0032C45.1204 27.9767 44.5604 28.0567 44.0536 28.1899C43.7071 28.2699 43.4136 28.4567 43.2271 28.7232C43.0936 28.9367 43.0136 29.2032 43.0136 29.4432C43.0136 29.6832 43.1204 29.9232 43.2804 30.1367C43.5204 30.4299 43.8404 30.6699 44.1871 30.8567C44.8054 31.1769 45.437 31.4705 46.0804 31.7367C47.5204 32.2167 48.9071 32.8832 50.1871 33.6832C51.0671 34.2432 51.7871 34.99 52.2936 35.8967C52.7204 36.75 52.9336 37.6832 52.9071 38.6432C52.9336 39.8967 52.5604 41.1499 51.8671 42.1899C51.1233 43.2544 50.0854 44.0791 48.8804 44.5632C47.5736 45.1232 45.9736 45.4167 44.0536 45.4167C42.8271 45.4167 41.6271 45.3099 40.4271 45.0699C39.4866 44.9075 38.5719 44.6206 37.7071 44.2167C37.5204 44.1099 37.3871 43.9232 37.4136 43.7099V39.0699C37.4136 38.9899 37.4404 38.8832 37.5204 38.83C37.6004 38.7767 37.6804 38.8032 37.7604 38.8567C38.8004 39.4699 39.8936 39.8967 41.0671 40.1632C42.0804 40.4299 43.1471 40.5632 44.2136 40.5632C45.2271 40.5632 45.9471 40.4299 46.4271 40.1899C46.8536 40.0032 47.1471 39.5499 47.1471 39.0699C47.1471 38.6967 46.9336 38.3499 46.5071 38.0032C46.0804 37.6567 45.2004 37.2567 43.8936 36.7499C42.5532 36.2776 41.2803 35.6322 40.1071 34.83C39.2715 34.2343 38.5792 33.46 38.0804 32.5632C37.6536 31.7099 37.4404 30.7767 37.4671 29.8432C37.4671 28.6967 37.7871 27.6032 38.3736 26.6167C39.0404 25.5499 40.0271 24.6967 41.1736 24.1632C42.4271 23.5232 44.0004 23.2299 45.8936 23.2299C46.9871 23.2299 48.1071 23.3099 49.2004 23.4699C50.0004 23.5767 50.7736 23.7899 51.4936 24.0832C51.6004 24.1099 51.7071 24.2167 51.7604 24.3232C51.7871 24.4299 51.8136 24.5367 51.8136 24.6432V28.9899C51.8136 29.0967 51.7604 29.2032 51.6804 29.2567C51.4404 29.3099 51.3071 29.3099 51.2004 29.2567Z" fill="#31A8FF"/>
</g>
<defs>
<clipPath id="clip0_57_980">
<rect width="64" height="64" fill="white"/>
</clipPath>
</defs>
</svg>
