<svg width="65" height="64" viewBox="0 0 65 64" fill="none" xmlns="http://www.w3.org/2000/svg">
<g clip-path="url(#clip0_57_952)">
<path d="M23.1787 64.5C29.1287 64.5 33.9287 59.7 33.9287 53.75V43H23.1787C17.2287 43 12.4287 47.8 12.4287 53.75C12.4287 59.7 17.2287 64.5 23.1787 64.5Z" fill="#0ACF83"/>
<path d="M12.4287 32.25C12.4287 26.3 17.2287 21.5 23.1787 21.5H33.9287V43H23.1787C17.2287 43 12.4287 38.2 12.4287 32.25Z" fill="#A259FF"/>
<path d="M12.4287 10.75C12.4287 4.8 17.2287 0 23.1787 0H33.9287V21.5H23.1787C17.2287 21.5 12.4287 16.7 12.4287 10.75Z" fill="#F24E1E"/>
<path d="M33.9287 0H44.6787C50.6287 0 55.4287 4.8 55.4287 10.75C55.4287 16.7 50.6287 21.5 44.6787 21.5H33.9287V0Z" fill="#FF7262"/>
<path d="M55.4287 32.25C55.4287 38.2 50.6287 43 44.6787 43C38.7287 43 33.9287 38.2 33.9287 32.25C33.9287 26.3 38.7287 21.5 44.6787 21.5C50.6287 21.5 55.4287 26.3 55.4287 32.25Z" fill="#1ABCFE"/>
</g>
<defs>
<clipPath id="clip0_57_952">
<rect width="64" height="64" fill="white" transform="translate(0.428711)"/>
</clipPath>
</defs>
</svg>
