<svg width="120" height="120" viewBox="0 0 120 120" fill="none" xmlns="http://www.w3.org/2000/svg">
<path d="M112.158 107.752L113.821 112.861H110.257L112.277 107.752H112.158ZM104.554 118.446H108.594L109.544 115.832H114.653L115.604 118.446H119.643L114.059 103.594H110.138L104.554 118.446ZM99.8017 118.446H103.841V103.594H99.8017V118.446ZM86.7324 113.337C86.7324 116.901 89.5839 118.446 92.9106 118.446C95.9997 118.446 99.0888 117.257 99.0888 113.693C99.0888 111.079 96.9502 110.129 94.9304 109.535C92.673 108.941 90.6532 108.941 90.6532 107.752C90.6532 106.802 91.8413 106.564 92.4353 106.564C93.6235 106.564 94.8116 106.921 94.8116 108.228H98.3759C98.3759 105.02 95.5244 103.475 92.673 103.475C89.9403 103.475 86.7324 104.663 86.7324 107.99C86.7324 110.604 89.1086 111.554 91.0096 112.03C93.1482 112.624 95.168 112.861 95.168 114.168C95.168 115.356 93.9799 115.594 92.7918 115.594C91.2472 115.594 90.1779 115 90.1779 113.218H86.6136L86.7324 113.337ZM79.9601 107.752L81.6235 112.861H78.0591L80.0789 107.752H79.9601ZM72.4749 118.446H76.3957L77.3462 115.832H82.574L83.5245 118.446H87.564L81.9799 103.594H77.9403L72.4749 118.446ZM59.4056 118.446H60.9502V105.851L69.6235 118.446H71.2868V103.594H69.8611V116.069L61.069 103.713H59.4056V118.446ZM56.3165 118.446H57.7423V103.594H56.3165V118.446ZM41.5839 118.446H45.5047V112.505H50.6136V118.446H54.4155V103.594H50.6136V108.941H45.5047V103.713H41.5839V118.446ZM40.3957 108.941C40.3957 105.614 37.1878 103.594 34.0987 103.594C29.8215 103.594 26.97 106.921 26.97 111.079C26.97 115.119 29.8215 118.446 34.0987 118.446C37.6631 118.446 40.3957 116.307 40.6334 112.505H37.069C36.8314 114.287 35.8809 115.238 34.0987 115.238C31.7225 115.238 30.772 113.099 30.772 111.079C30.772 108.941 31.7225 106.802 34.0987 106.802C35.6433 106.802 36.8314 107.515 36.9502 108.941H40.5146H40.3957ZM14.6136 118.446H26.7324V115.119H18.4155V112.267H25.7819V109.297H18.6532V106.564H26.4947V103.713H14.6136V118.446ZM13.4254 103.594H0.950195V106.921H5.34623V118.446H9.26703V106.921H13.6631V103.594H13.4254Z" fill="black"/>
<g clip-path="url(#clip0_107_226)">
<path d="M84.3334 34C85.3334 34.6666 86.3334 34 86 32.6666L80.6667 23.3333H78.6667L45.3334 82.3333C44 83.6666 42 83.6666 41.3334 82.3333L30 63.3333L29.3334 60.6666V44C29.3334 42.3333 28.6667 41.3333 27.6667 40.6666L1.00004 17.3333C-0.666628 16.3333 3.89832e-05 14 2.33337 14H50L61.6667 20.6666C62.3334 21.3333 62.3334 22 61.6667 22.3333L57 31C57 31.6666 56.3334 32 56 31.6666L46.6667 26.6666L44.6667 26H32.3334C31.3334 26 31 27.3333 31.6667 28L40 34.6666C41 35.6666 41.3334 37 41.3334 38V60C41.3334 61.3333 43 61.6666 43.6667 60.6666L78.3334 0.666626C79 -0.333374 81.6667 -0.333374 81.6667 0.666626L117.333 62.3333C119 64.3333 116.667 66.3333 114.667 65.6666L73.3334 41.3333C72.6667 41.3333 72.3334 40.3333 72.6667 40L77.6667 31.6666C77.6667 31 78.6667 31 79.3334 31L84.3334 34.3333V34Z" fill="#E10000"/>
</g>
<defs>
<clipPath id="clip0_107_226">
<rect width="120" height="83.3333" fill="white"/>
</clipPath>
</defs>
</svg>
