<svg width="65" height="64" viewBox="0 0 65 64" fill="none" xmlns="http://www.w3.org/2000/svg">
<g clip-path="url(#clip0_57_967)">
<mask id="mask0_57_967" style="mask-type:alpha" maskUnits="userSpaceOnUse" x="0" y="0" width="65" height="64">
<path fill-rule="evenodd" clip-rule="evenodd" d="M45.5263 63.563C46.0355 63.7615 46.5802 63.8532 47.1264 63.8322C47.6727 63.8112 48.2087 63.678 48.7013 63.441L61.8778 57.1004C62.5563 56.7738 63.1289 56.2622 63.5296 55.6245C63.9303 54.9869 64.1428 54.2491 64.1428 53.4959V10.5044C64.1429 9.75126 63.9304 9.01333 63.5297 8.37557C63.129 7.73781 62.5564 7.22614 61.8778 6.89945L48.7013 0.559949C47.9567 0.201702 47.1192 0.0837502 46.3047 0.222418C45.4901 0.361086 44.7388 0.749516 44.1548 1.33395L18.9298 24.3469L7.94276 16.0064C7.44713 15.6301 6.8354 15.4392 6.21372 15.4668C5.59203 15.4944 4.99961 15.7387 4.53926 16.1574L1.01526 19.3629C0.740632 19.6127 0.521164 19.9171 0.370894 20.2565C0.220625 20.596 0.142861 20.9631 0.142579 21.3343C0.142297 21.7055 0.219501 22.0727 0.369254 22.4124C0.519008 22.7521 0.738012 23.0568 1.01226 23.3069L10.5408 31.9999L1.01276 40.6935C0.738661 40.9437 0.519788 41.2484 0.370128 41.588C0.220468 41.9276 0.143313 42.2947 0.143596 42.6659C0.143878 43.037 0.221591 43.404 0.371768 43.7434C0.521944 44.0828 0.741281 44.3871 1.01576 44.637L4.53976 47.8424C5 48.2613 5.5924 48.5058 6.21412 48.5335C6.83583 48.5612 7.44761 48.3703 7.94326 47.9939L18.9303 39.6539L44.1553 62.6665C44.5453 63.0572 45.0119 63.3625 45.5263 63.563ZM48.1523 17.4714L29.0128 31.9999L48.1528 46.5289L48.1523 17.4714Z" fill="white"/>
</mask>
<g mask="url(#mask0_57_967)">
<path d="M61.8779 6.91004L48.6909 0.560042C47.9461 0.201557 47.1082 0.0834775 46.2933 0.222146C45.4784 0.360815 44.7268 0.749375 44.1424 1.33404L0.973406 40.6935C0.699104 40.9437 0.480046 41.2483 0.330253 41.5879C0.180461 41.9276 0.103234 42.2947 0.103516 42.666C0.103799 43.0372 0.181584 43.4042 0.331893 43.7436C0.482203 44.0831 0.701724 44.3874 0.976406 44.637L4.50241 47.8425C4.96307 48.2614 5.55578 48.5059 6.17778 48.5335C6.79979 48.5612 7.41187 48.3703 7.90791 47.994L59.8934 8.55654C61.6374 7.23354 64.1424 8.47754 64.1424 10.6665V10.5135C64.1424 9.76059 63.9298 9.02293 63.5292 8.38538C63.1287 7.74784 62.5563 7.23678 61.8779 6.91004Z" fill="#0065A9"/>
<g filter="url(#filter0_d_57_967)">
<path d="M61.8779 57.0905L48.6909 63.4395C47.9462 63.7981 47.1084 63.9164 46.2935 63.7779C45.4786 63.6394 44.7269 63.251 44.1424 62.6665L0.973406 23.3065C0.699104 23.0564 0.480046 22.7518 0.330253 22.4121C0.180461 22.0725 0.103234 21.7053 0.103516 21.3341C0.103799 20.9629 0.181584 20.5958 0.331893 20.2564C0.482203 19.917 0.701724 19.6127 0.976406 19.363L4.50241 16.1575C4.96307 15.7386 5.55578 15.4942 6.17778 15.4665C6.79979 15.4388 7.41187 15.6297 7.90791 16.006L59.8934 55.443C61.6374 56.7665 64.1424 55.5225 64.1424 53.3335V53.4865C64.1424 54.2395 63.9298 54.9771 63.5292 55.6147C63.1287 56.2522 62.5563 56.7638 61.8779 57.0905Z" fill="#007ACC"/>
</g>
<g filter="url(#filter1_d_57_967)">
<path d="M48.6916 63.441C47.9466 63.7993 47.1086 63.9172 46.2937 63.7784C45.4788 63.6397 44.7271 63.2511 44.1426 62.6665C45.6186 64.1425 48.1426 63.097 48.1426 61.0095V2.99001C48.1426 0.902514 45.6186 -0.142986 44.1426 1.33351C44.7271 0.748915 45.4788 0.360373 46.2937 0.221624C47.1086 0.082874 47.9466 0.200773 48.6916 0.559014L61.8761 6.90001C62.555 7.2265 63.1279 7.73807 63.5289 8.37585C63.9299 9.01362 64.1426 9.75166 64.1426 10.505V53.496C64.1426 54.2494 63.9299 54.9874 63.5289 55.6252C63.1279 56.263 62.555 56.7745 61.8761 57.101L48.6916 63.441Z" fill="#1F9CF0"/>
</g>
<path opacity="0.25" fill-rule="evenodd" clip-rule="evenodd" d="M45.4875 63.5631C45.9967 63.7616 46.5413 63.8532 47.0874 63.8322C47.6335 63.8112 48.1695 63.6781 48.662 63.4411L61.8385 57.1006C62.5171 56.7739 63.0897 56.2622 63.4904 55.6245C63.8911 54.9867 64.1036 54.2488 64.1035 53.4956V10.5046C64.1036 9.75138 63.8911 9.01345 63.4904 8.37569C63.0897 7.73793 62.5171 7.22627 61.8385 6.89957L48.662 0.560071C47.9174 0.201824 47.0799 0.0838722 46.2654 0.22254C45.4508 0.361208 44.6995 0.749638 44.1155 1.33407L18.8905 24.3471L7.90345 16.0071C7.40783 15.6308 6.7961 15.4398 6.17441 15.4674C5.55272 15.495 4.9603 15.7393 4.49995 16.1581L0.975953 19.3636C0.701395 19.6134 0.481989 19.9178 0.331764 20.2572C0.181538 20.5966 0.103799 20.9637 0.103516 21.3349C0.103234 21.7061 0.180415 22.0733 0.330124 22.413C0.479833 22.7526 0.698775 23.0573 0.972952 23.3076L10.5015 32.0001L0.973452 40.6931C0.699207 40.9433 0.480203 41.248 0.33045 41.5876C0.180696 41.9273 0.103492 42.2945 0.103774 42.6657C0.104056 43.037 0.18182 43.404 0.332089 43.7435C0.482359 44.0829 0.701827 44.3873 0.976452 44.6371L4.50045 47.8426C4.96074 48.2614 5.55313 48.5058 6.17482 48.5335C6.79651 48.5612 7.40827 48.3703 7.90395 47.9941L18.8915 39.6536L44.1165 62.6666C44.5063 63.0572 44.9732 63.3625 45.4875 63.5631ZM48.1135 17.4711L28.9735 32.0001L48.1135 46.5286V17.4711Z" fill="url(#paint0_linear_57_967)"/>
</g>
</g>
<defs>
<filter id="filter0_d_57_967" x="-4.06348" y="11.2969" width="72.3731" height="56.7044" filterUnits="userSpaceOnUse" color-interpolation-filters="sRGB">
<feFlood flood-opacity="0" result="BackgroundImageFix"/>
<feColorMatrix in="SourceAlpha" type="matrix" values="0 0 0 0 0 0 0 0 0 0 0 0 0 0 0 0 0 0 127 0" result="hardAlpha"/>
<feOffset/>
<feGaussianBlur stdDeviation="2.0835"/>
<feColorMatrix type="matrix" values="0 0 0 0 0 0 0 0 0 0 0 0 0 0 0 0 0 0 0.25 0"/>
<feBlend mode="overlay" in2="BackgroundImageFix" result="effect1_dropShadow_57_967"/>
<feBlend mode="normal" in="SourceGraphic" in2="effect1_dropShadow_57_967" result="shape"/>
</filter>
<filter id="filter1_d_57_967" x="39.9756" y="-4.00196" width="28.334" height="72.0039" filterUnits="userSpaceOnUse" color-interpolation-filters="sRGB">
<feFlood flood-opacity="0" result="BackgroundImageFix"/>
<feColorMatrix in="SourceAlpha" type="matrix" values="0 0 0 0 0 0 0 0 0 0 0 0 0 0 0 0 0 0 127 0" result="hardAlpha"/>
<feOffset/>
<feGaussianBlur stdDeviation="2.0835"/>
<feColorMatrix type="matrix" values="0 0 0 0 0 0 0 0 0 0 0 0 0 0 0 0 0 0 0.25 0"/>
<feBlend mode="overlay" in2="BackgroundImageFix" result="effect1_dropShadow_57_967"/>
<feBlend mode="normal" in="SourceGraphic" in2="effect1_dropShadow_57_967" result="shape"/>
</filter>
<linearGradient id="paint0_linear_57_967" x1="32.1035" y1="0.165071" x2="32.1035" y2="63.8351" gradientUnits="userSpaceOnUse">
<stop stop-color="white"/>
<stop offset="1" stop-color="white" stop-opacity="0"/>
</linearGradient>
<clipPath id="clip0_57_967">
<rect width="64" height="64" fill="white" transform="translate(0.142578)"/>
</clipPath>
</defs>
</svg>
