<svg width="65" height="64" viewBox="0 0 65 64" fill="none" xmlns="http://www.w3.org/2000/svg">
<g clip-path="url(#clip0_57_992)">
<path d="M49.7148 0H15.7148C7.43057 0 0.714844 6.71573 0.714844 15V49C0.714844 57.2843 7.43057 64 15.7148 64H49.7148C57.9991 64 64.7148 57.2843 64.7148 49V15C64.7148 6.71573 57.9991 0 49.7148 0Z" fill="#00005B"/>
<path d="M27.0041 39.03H17.0841L15.0573 45.3232C15.0041 45.5632 14.7908 45.7233 14.5508 45.6968H9.53731C9.24406 45.6968 9.16406 45.5368 9.24406 45.2168L17.8308 20.6033C17.9108 20.3368 17.9908 20.0968 18.0973 19.7768C18.2041 19.2168 18.2573 18.63 18.2573 18.0432C18.2308 17.91 18.3373 17.7768 18.4706 17.75H25.3773C25.5641 17.75 25.6973 17.83 25.7241 17.9632L35.4573 45.1632C35.5373 45.4568 35.4573 45.59 35.1908 45.59H29.6173C29.4308 45.6168 29.2441 45.4832 29.1908 45.2967L27.0041 38.8968V39.03ZM18.6308 33.7233H25.4041C25.2441 33.1633 25.0306 32.4967 24.7906 31.8032C24.5506 31.0832 24.3106 30.31 24.0706 29.51C23.8041 28.6833 23.5641 27.8832 23.2973 27.0567C23.0306 26.23 22.7908 25.4568 22.5773 24.6833C22.3641 23.9368 22.1773 23.2433 21.9906 22.6033H21.9373C21.6973 23.75 21.4041 24.8967 21.0306 26.0432C20.6306 27.3232 20.2306 28.6567 19.8041 29.99C19.4573 31.35 19.0306 32.6033 18.6308 33.7233ZM51.1641 36.63H42.7108C42.8173 37.4568 43.0841 38.2833 43.5373 39.0033C44.0173 39.7232 44.6841 40.2832 45.4841 40.6032C46.5508 41.0567 47.7241 41.2968 48.8973 41.27C49.8308 41.2432 50.7641 41.1632 51.6708 40.9767C52.484 40.8702 53.2811 40.6642 54.0441 40.3633C54.1773 40.2568 54.2573 40.31 54.2573 40.5768V44.6567C54.2573 44.7633 54.2308 44.87 54.2041 44.9767C54.1508 45.0567 54.0973 45.11 54.0173 45.1632C53.1645 45.5379 52.269 45.8065 51.3508 45.9632C50.1034 46.2032 48.8341 46.3104 47.5641 46.2832C45.5373 46.2832 43.8308 45.9632 42.4441 45.35C41.1373 44.79 39.9908 43.91 39.0841 42.8167C38.2397 41.7894 37.6137 40.6007 37.2441 39.3232C36.8708 38.07 36.6841 36.7633 36.6841 35.43C36.6841 33.99 36.8973 32.5768 37.3508 31.19C37.776 29.8548 38.4551 28.6143 39.3508 27.5368C40.2308 26.47 41.3241 25.6168 42.5773 25.0033C43.8308 24.39 45.3241 24.1768 47.0308 24.1768C48.4441 24.15 49.8573 24.4167 51.1641 25.0033C52.2573 25.4833 53.2173 26.2032 53.9641 27.1367C54.6573 28.0432 55.2173 29.0568 55.5641 30.1768C55.9108 31.2432 56.0708 32.3368 56.0708 33.43C56.0708 34.07 56.0441 34.63 56.0173 35.1367C55.9641 35.6432 55.9373 36.0167 55.9108 36.2567C55.8841 36.4432 55.7241 36.6032 55.5373 36.6032C55.3773 36.6032 55.0841 36.63 54.6573 36.6567C54.2308 36.71 53.7241 36.7368 53.1108 36.7368C52.4973 36.7368 51.8573 36.63 51.1641 36.63ZM42.7108 32.7368H48.3373C49.0308 32.7368 49.5373 32.7367 49.8573 32.71C50.0708 32.6832 50.2841 32.63 50.4708 32.4967V32.23C50.4718 31.8945 50.4178 31.5612 50.3108 31.2432C49.8308 29.75 48.4173 28.7368 46.8441 28.79C46.1203 28.7494 45.4003 28.9192 44.771 29.2789C44.1416 29.6385 43.6298 30.1726 43.2973 30.8167C42.9773 31.43 42.7908 32.07 42.7108 32.7368Z" fill="#9999FF"/>
</g>
<defs>
<clipPath id="clip0_57_992">
<rect width="64" height="64" fill="white" transform="translate(0.714844)"/>
</clipPath>
</defs>
</svg>
