<svg width="65" height="64" viewBox="0 0 65 64" fill="none" xmlns="http://www.w3.org/2000/svg">
<g clip-path="url(#clip0_57_986)">
<path d="M49.8574 0H15.8574C7.57315 0 0.857422 6.71573 0.857422 15V49C0.857422 57.2843 7.57315 64 15.8574 64H49.8574C58.1417 64 64.8574 57.2843 64.8574 49V15C64.8574 6.71573 58.1417 0 49.8574 0Z" fill="#330000"/>
<path d="M31.7912 38.0832H21.8712L19.8444 44.35C19.7912 44.59 19.5779 44.75 19.3379 44.7232H14.3244C14.0312 44.7232 13.9512 44.5632 14.0312 44.2432L22.6179 19.5232C22.6979 19.2567 22.7779 18.9632 22.8844 18.6432C22.9912 18.0832 23.0444 17.4967 23.0444 16.91C23.0179 16.7767 23.1244 16.6432 23.2579 16.6167H30.1644C30.3779 16.6167 30.4844 16.6967 30.5112 16.83L40.2444 44.2967C40.3244 44.59 40.2444 44.7232 39.9779 44.7232H34.4044C34.2179 44.75 34.0312 44.6167 33.9779 44.43L31.7912 38.0832ZM23.4179 32.67H30.1912C30.0312 32.11 29.8179 31.4432 29.5779 30.75C29.3379 30.03 29.0979 29.2567 28.8579 28.4567C28.5912 27.63 28.3512 26.83 28.0844 26.0032C27.8179 25.1767 27.5779 24.4032 27.3644 23.63C27.1512 22.8835 26.9644 22.19 26.7779 21.55H26.7244C26.4844 22.6967 26.1912 23.8435 25.8179 24.99C25.4179 26.27 25.0179 27.6032 24.5912 28.9367C24.2468 30.1953 23.8554 31.4406 23.4179 32.67ZM46.1912 21.2832C45.3112 21.31 44.4579 20.9632 43.8179 20.35C43.2047 19.6832 42.8847 18.8032 42.9112 17.8967C42.8847 16.99 43.2312 16.1367 43.8712 15.5232C44.5112 14.91 45.3647 14.59 46.2447 14.59C47.2847 14.59 48.0847 14.91 48.6712 15.5232C49.2622 16.1697 49.5778 17.0212 49.5512 17.8967C49.5779 18.8032 49.2579 19.6832 48.6179 20.35C48.0047 20.99 47.0979 21.3367 46.1912 21.2832ZM43.2047 44.43V23.8967C43.2047 23.63 43.3112 23.5232 43.5512 23.5232H48.8312C49.0712 23.5232 49.1779 23.6567 49.1779 23.8967V44.43C49.1779 44.7232 49.0712 44.8567 48.8312 44.8567H43.6047C43.3379 44.8567 43.2047 44.6967 43.2047 44.43Z" fill="#FF9A00"/>
</g>
<defs>
<clipPath id="clip0_57_986">
<rect width="64" height="64" fill="white" transform="translate(0.857422)"/>
</clipPath>
</defs>
</svg>
