<svg width="120" height="121" viewBox="0 0 120 121" fill="none" xmlns="http://www.w3.org/2000/svg">
<g clip-path="url(#clip0_105_187)">
<path fill-rule="evenodd" clip-rule="evenodd" d="M84.0581 78.0857H108.251V102.279C108.251 112.119 100.202 120.168 90.3625 120.168H82.2951V112.451H89.1995C95.4301 112.451 100.525 107.356 100.525 101.125V85.8024H85.2027C78.9721 85.8024 73.8769 90.8976 73.8769 97.1282V120.168H66.1602V95.9744C66.1602 86.1347 74.2092 78.0857 84.0489 78.0857H84.0581Z" fill="#0C5D3D"/>
<path fill-rule="evenodd" clip-rule="evenodd" d="M55.7852 89.79H64.2034V120.168H55.7852V89.79Z" fill="#0C5D3D"/>
<path fill-rule="evenodd" clip-rule="evenodd" d="M11.7373 78.0857H19.454V101.162C19.454 107.374 24.54 112.451 30.7429 112.451H46.1025V97.0913C46.1025 90.8792 41.0165 85.8024 34.8136 85.8024H27.8722V78.0857H35.9951C45.7979 78.0857 53.8284 86.107 53.8284 95.919V120.168H29.5799C19.7771 120.168 11.7465 112.146 11.7465 102.334V78.0857H11.7373Z" fill="#0C5D3D"/>
<path fill-rule="evenodd" clip-rule="evenodd" d="M42.6227 59.1632L31.7861 48.3358L33.7338 46.3974H35.8014L45.595 56.191L42.6227 59.1632Z" fill="#CC9A32"/>
<path fill-rule="evenodd" clip-rule="evenodd" d="M66.0035 70.5352L59.9945 76.5442L46.5918 63.1323L49.564 60.1601L59.9945 70.5906L63.0313 67.5537L66.0035 70.5352Z" fill="#CC9A32"/>
<path fill-rule="evenodd" clip-rule="evenodd" d="M80.8092 55.7294L69.9726 66.566L68.0342 64.6276V62.5508L77.8277 52.7572L80.8092 55.7294Z" fill="#CC9A32"/>
<path fill-rule="evenodd" clip-rule="evenodd" d="M92.172 32.3486L98.181 38.3576L84.7783 51.7696L81.7969 48.7881L92.2366 38.3576L89.1997 35.3208L92.172 32.3486Z" fill="#CC9A32"/>
<path fill-rule="evenodd" clip-rule="evenodd" d="M77.3755 17.5521L88.2029 28.3794L86.2645 30.3178H84.1969L74.4033 20.5243L77.3755 17.5521Z" fill="#CC9A32"/>
<path fill-rule="evenodd" clip-rule="evenodd" d="M53.9854 6.18008L59.9944 0.171021L73.4063 13.5829L70.4341 16.5552L59.9944 6.1247L56.9668 9.1523L53.9854 6.18008Z" fill="#CC9A32"/>
<path fill-rule="evenodd" clip-rule="evenodd" d="M39.1885 20.9766L50.0159 10.1492L51.9635 12.0876V14.1644L42.1607 23.958L39.1885 20.9766Z" fill="#CC9A32"/>
<path fill-rule="evenodd" clip-rule="evenodd" d="M67.3322 58.3417V64.9138L69.8798 67.4614H89.0977L89.1069 48.4281L92.1714 45.3544L93.3068 46.499V71.6705H68.1352L63.123 66.6584V58.3417H67.3322Z" fill="#CC9A32"/>
<path fill-rule="evenodd" clip-rule="evenodd" d="M56.0713 38.8561L67.3325 50.1173V52.7295L63.1234 52.7388V51.8619L53.0898 41.8283L56.0713 38.8561Z" fill="#CC9A32"/>
<path fill-rule="evenodd" clip-rule="evenodd" d="M36.087 31.0194H48.2344L52.102 34.887L49.1297 37.8592L46.4898 35.2285H31.8779L36.087 31.0194Z" fill="#CC9A32"/>
<path fill-rule="evenodd" clip-rule="evenodd" d="M52.6655 18.3644V11.8015L50.1179 9.25385H30.8908V28.2871L27.8262 31.3517L26.6816 30.2163V5.04474H51.8625L56.8654 10.0569V18.3644H52.6655Z" fill="#CC9A32"/>
<path fill-rule="evenodd" clip-rule="evenodd" d="M63.9263 37.8592L52.665 26.598V23.9765H56.8649V24.8534L66.8985 34.887L63.9263 37.8592Z" fill="#CC9A32"/>
<path fill-rule="evenodd" clip-rule="evenodd" d="M71.7539 45.6959L67.8955 41.8283L70.8677 38.8561L73.4984 41.4868H88.1103L83.9012 45.6959H71.7539Z" fill="#CC9A32"/>
<path fill-rule="evenodd" clip-rule="evenodd" d="M40.0105 45.6959H33.4384L30.8908 48.2435V67.4614H49.924L52.9978 70.5352L51.8625 71.6705H26.6816V46.4989L31.6938 41.4868H40.0105V45.6959Z" fill="#CC9A32"/>
<path fill-rule="evenodd" clip-rule="evenodd" d="M59.5047 34.4255L48.2343 45.6959H45.6221V41.4868H46.4897L56.5233 31.4532L59.5047 34.4255Z" fill="#CC9A32"/>
<path fill-rule="evenodd" clip-rule="evenodd" d="M67.333 14.4506V26.5979L63.4654 30.4655L60.4932 27.484L63.1239 24.8533V10.2415L67.333 14.4506Z" fill="#CC9A32"/>
<path fill-rule="evenodd" clip-rule="evenodd" d="M79.9873 31.0194H86.5594L89.1071 28.4718V9.25385H70.0738L67 6.18009L68.1354 5.04474H93.3069V30.2163L88.2948 35.2285H79.9873V31.0194Z" fill="#CC9A32"/>
<path fill-rule="evenodd" clip-rule="evenodd" d="M60.4932 42.2806L71.7544 31.0194H74.3758V35.2285H73.4989L63.4654 45.2621L60.4932 42.2806Z" fill="#CC9A32"/>
<path fill-rule="evenodd" clip-rule="evenodd" d="M52.665 50.1173L56.5234 46.2497L59.5048 49.2311L56.8649 51.8618V66.4737L52.665 62.2646V50.1173Z" fill="#CC9A32"/>
<path fill-rule="evenodd" clip-rule="evenodd" d="M80.8093 27.9271L79.2863 29.4409V40.7852H75.0771V27.7056L77.8278 24.9457L80.8093 27.9271Z" fill="#CC9A32"/>
<path fill-rule="evenodd" clip-rule="evenodd" d="M68.0342 19.0659H68.9111L75.9263 12.0599H86.3013V22.435L84.7783 23.9581L81.7969 20.9766L82.0922 20.6905V16.269H77.6616L70.6556 23.275H68.0342V19.0659Z" fill="#CC9A32"/>
<path fill-rule="evenodd" clip-rule="evenodd" d="M49.564 17.5521L51.0871 19.0659H62.4221V23.275H49.3425L46.5918 20.5243L49.564 17.5521Z" fill="#CC9A32"/>
<path fill-rule="evenodd" clip-rule="evenodd" d="M40.7115 30.3179V29.441L33.6963 22.435V12.0599H44.0714L45.5944 13.583L42.6222 16.5552L42.3268 16.269H37.9054V20.6905L44.9206 27.7056V30.3179H40.7115Z" fill="#CC9A32"/>
<path fill-rule="evenodd" clip-rule="evenodd" d="M39.1885 48.7881L40.7115 47.2651V35.9301H44.9206V49.0097L42.1607 51.7696L39.1885 48.7881Z" fill="#CC9A32"/>
<path fill-rule="evenodd" clip-rule="evenodd" d="M51.9635 57.6401H51.0866L44.0714 64.6553H33.6963V54.2802L35.2193 52.7572L38.2008 55.7294L37.9054 56.0248V60.4462H42.3268L49.342 53.431H51.9635V57.6401Z" fill="#CC9A32"/>
<path fill-rule="evenodd" clip-rule="evenodd" d="M70.4337 59.1632L68.9107 57.6401H57.5756L57.5664 53.431H70.6553L73.406 56.191L70.4337 59.1632Z" fill="#CC9A32"/>
<path fill-rule="evenodd" clip-rule="evenodd" d="M75.9264 64.6553L74.4033 63.1323L77.3755 60.1601L77.6617 60.4462H82.0923V56.0248L75.0771 49.0096V46.3974H79.2863V47.2651L86.3014 54.2803V64.6553H75.9264Z" fill="#CC9A32"/>
<path fill-rule="evenodd" clip-rule="evenodd" d="M54.0498 82.5071L59.9942 76.5535L65.9479 82.5071L59.9942 88.4516L54.0498 82.5071Z" fill="#CC9A32"/>
<path fill-rule="evenodd" clip-rule="evenodd" d="M21.8076 38.3576L35.2195 24.9457L38.201 27.9271L27.7613 38.3576L30.7981 41.3944L27.8259 44.3667L21.8076 38.3576Z" fill="#CC9A32"/>
</g>
<defs>
<clipPath id="clip0_105_187">
<rect width="120" height="120" fill="white" transform="translate(0 0.5)"/>
</clipPath>
</defs>
</svg>
